<svg xmlns="http://www.w3.org/2000/svg" xmlns:xlink="http://www.w3.org/1999/xlink" version="1.1" id="Layer_1" x="0" y="0" viewBox="0 0 162.9 162.9" enable-background="new 0 0 162.9 162.9" xml:space="preserve">
  <path fill-rule="evenodd" clip-rule="evenodd" fill="#00B3C4" d="M162.9 56.7c0 7.8-6.3 14.2-14.2 14.2h-42.5c-7.8 0-14.2-6.3-14.2-14.2V14.2C92 6.3 98.3 0 106.2 0h42.5c7.8 0 14.2 6.3 14.2 14.2V56.7z"/>
  <path fill-rule="evenodd" clip-rule="evenodd" fill="#575756" d="M141.7 148.7c0 7.8-6.3 14.2-14.2 14.2H14.2c-7.8 0-14.2-6.3-14.2-14.2V35.3c0-7.8 6.3-14.2 14.2-14.2h113.4c7.8 0 14.2 6.3 14.2 14.2V148.7z"/>
  <path fill-rule="evenodd" clip-rule="evenodd" fill="#354B54" d="M127.6 21.1H92v35.6c0 7.8 6.3 14.2 14.2 14.2h35.6V35.3C141.7 27.5 135.4 21.1 127.6 21.1z"/>
  <path fill="#FFFFFF" d="M29.2 136.3l0 0.7v8.9H25v-9c0-1.1-0.4-1.6-1.2-1.6 -0.6 0-1.1 0.1-1.5 0.2 -0.4 0.2-0.8 0.4-1.2 0.8v9.6h-4.2v-13.7h3.5l0.7 1.4c1.1-0.9 2-1.4 2.7-1.5 0.4-0.1 0.8-0.1 1.3-0.1 1.7 0 2.9 0.6 3.5 1.7 0.7-0.5 1.5-0.9 2.2-1.2 0.7-0.3 1.5-0.5 2.2-0.5 0.7 0 1.3 0.1 1.7 0.2 0.4 0.1 0.8 0.3 1.1 0.5 0.3 0.2 0.5 0.5 0.7 0.8 0.2 0.3 0.4 0.6 0.5 1 0.2 0.7 0.3 1.6 0.3 2.6v8.9h-4.2v-9c0-1.1-0.4-1.6-1.2-1.6C30.7 135.3 29.8 135.6 29.2 136.3z"/>
  <path fill="#FFFFFF" d="M38.7 132.3h4.4l2 9.2c0.2 0.6 0.6 1 1.3 1l2.3-10.2H53l-3.6 15.3 -1.9 2.6h-3.1l1.1-4.3c-2.3 0-3.8-1.2-4.4-3.7L38.7 132.3z"/>
  <path fill="#FFFFFF" d="M59.3 145.3c1.1 0.5 2.4 0.8 3.8 0.8 1.4 0 2.5-0.4 3.2-1.3 0.8-1 1.3-2.9 1.3-5.8 0-2.3-0.3-4-1-5.2 -0.7-1.2-1.8-1.7-3.2-1.7 -1.5 0-2.8 0.5-4 1.5l-0.7-1.3h-3.6v18h4.2V145.3zM59.3 136.3c0.5-0.5 1.4-0.7 2.5-0.7 0.5 0 0.9 0.3 1.1 0.8 0.2 0.5 0.4 1.6 0.4 3.3 0 1.7-0.2 2.7-0.7 3.1 -0.2 0.2-0.5 0.3-0.8 0.3 -1.1 0-1.9-0.1-2.5-0.4V136.3z"/>
  <path fill="#FFFFFF" d="M69.5 142.4v-1.2c0-1.1 0.3-2 1-2.8 0.7-0.7 1.7-1.1 3-1.1 1.3 0 2.5 0 3.7 0 0-0.4 0-0.5 0-0.6 0-0.7-0.1-1.1-0.4-1.2 -0.3-0.2-0.8-0.3-1.6-0.3 -0.8 0-2.5 0.1-5.2 0.3V133c0.9-0.4 1.8-0.6 2.7-0.7 0.9-0.1 2.2-0.2 3.7-0.2 1.5 0 2.8 0.3 3.6 1 0.9 0.7 1.3 1.9 1.3 3.6v9.4H78l-0.9-1.4c-0.1 0.3-0.5 0.6-1.2 1 -0.7 0.4-1.4 0.6-2.2 0.6 -1.4 0-2.5-0.4-3.2-1.2C69.9 144.2 69.5 143.3 69.5 142.4zM75 142.9c0.8 0 1.6-0.3 2.2-1v-2.1l-2.4 0.2c-0.7 0.1-1 0.5-1 1.3v0.4c0 0.5 0.1 0.9 0.4 1C74.4 142.8 74.6 142.9 75 142.9z"/>
  <path fill="#FFFFFF" d="M83.7 146v-13.7h3.7l0.6 1.7c0.4-0.5 0.8-0.9 1.2-1.1 0.4-0.2 0.7-0.4 0.9-0.5 0.5-0.2 1-0.3 1.6-0.3 0.6 0 1 0.1 1.3 0.2v4c-0.5 0-1.2 0-2 0 -0.8 0-1.4 0.1-1.9 0.3 -0.5 0.2-0.8 0.6-1 1.2v8.1H83.7z"/>
  <path fill="#FFFFFF" d="M100.6 146.1l-1.8 0c-0.1 0-0.1 0-0.2 0 -2.2 0-3.6-1.2-4.1-3.6 -0.2-0.9-0.3-2.1-0.3-3.4 0-1.3 0.1-2.5 0.3-3.4 0.2-0.9 0.5-1.6 0.9-2.2 0.8-0.9 1.8-1.4 3.2-1.4 2.7 0 4.9 0.3 6.5 0.9v2.5c-1.4-0.1-2.5-0.2-3.4-0.2 -0.9 0-1.4 0-1.6 0 -0.2 0-0.3 0-0.5 0.1 -0.2 0-0.4 0.1-0.5 0.2 -0.1 0.1-0.2 0.2-0.3 0.4 -0.1 0.2-0.2 0.4-0.2 0.7 -0.1 0.7-0.2 1.5-0.2 2.3s0 1.6 0.1 2c0.1 0.5 0.2 0.8 0.4 1.1 0.2 0.3 0.4 0.4 0.7 0.5 0.3 0.1 0.7 0.1 1.3 0.1 1.3 0 2.6-0.1 3.8-0.2l0.6-0.1v2.5c-0.8 0.5-1.5 0.7-2.3 0.8C102.1 146.1 101.3 146.1 100.6 146.1z"/>
  <path fill="#FFFFFF" d="M114 142.8c1.7 0 3.2-0.1 4.5-0.3v2.8c-0.6 0.2-1.4 0.4-2.4 0.5 -1 0.1-1.8 0.2-2.3 0.2 -0.5 0-1.4 0-2.6 0 -1.7 0-2.9-0.5-3.5-1.6 -0.7-1.1-1-2.9-1-5.4 0-1.5 0.1-2.6 0.3-3.5 0.2-0.9 0.5-1.6 1.1-2.1 0.5-0.5 1.1-0.8 1.8-1 0.7-0.2 1.5-0.3 2.5-0.3 1 0 1.7 0 2.2 0.1 0.5 0 1 0.1 1.5 0.2 0.5 0.1 0.9 0.3 1.2 0.5 0.3 0.2 0.5 0.5 0.8 0.9 0.4 0.7 0.6 1.8 0.6 3.3 0 1.8-0.7 3-2.2 3.3 -0.5 0.1-1 0.2-1.7 0.2H111c0 0.9 0.2 1.5 0.5 1.7 0.4 0.2 0.9 0.4 1.5 0.4 0.2 0 0.3 0 0.6 0C113.8 142.8 114 142.8 114 142.8zM113.6 137.9c0.4 0 0.7-0.1 0.9-0.4 0.1-0.1 0.1-0.3 0.1-0.6 0-0.3 0-0.5 0-0.7 0-0.2-0.1-0.4-0.2-0.5 -0.2-0.2-0.5-0.4-1.1-0.4 -0.5 0-0.9 0-1.2 0.1 -0.2 0-0.4 0.2-0.6 0.3 -0.3 0.3-0.4 0.9-0.4 2 0 0.1 0 0.2 0 0.3H113.6z"/>
  <path fill="#FFFFFF" d="M120.6 141.1v-13h4.2v12.2c0 0.9 0.1 1.5 0.3 1.8 0.2 0.3 0.5 0.6 0.8 0.8 0.9 0.4 1.4 0.5 1.5 0.5v2.5h-3.2c-1.2 0-2.1-0.4-2.7-1.1C120.9 144.1 120.6 142.8 120.6 141.1z"/>
</svg>